# xmcd CD database file
#
# Track frame offsets:
#	150
#	20002
#	41695
#	59317
#	75819
#	91486
#	109261
#	122349
#	138779
#	154887
#	171421
#	187124
#
# Disc length: 2712 seconds
#
# Revision: 3
# Processed by: cddbd v1.5.2PL0 Copyright (c) Steve Scherf et al.
# Submitted via: CDex 1.51
#
DISCID=980a960c
DTITLE=Rockie Lynne - Rockie Lynne
DYEAR=2006
DGENRE=Country
TTITLE0=Lipstick
TTITLE1=The Only Reason
TTITLE2=More
TTITLE3=Super Country Cowboy
TTITLE4=That's Where Songs Come From
TTITLE5=Do We Still
TTITLE6=Big Time In A Small Town
TTITLE7=Don't Make This Easy On Me
TTITLE8=Love Me Like You're Gonna Lose Me
TTITLE9=Every Man's Got A Mountain
TTITLE10=Holding Back The Ocean
TTITLE11=Red, White And Blue
EXTD=YEAR: 2006
EXTT0=
EXTT1=
EXTT2=
EXTT3=
EXTT4=
EXTT5=
EXTT6=
EXTT7=
EXTT8=
EXTT9=
EXTT10=
EXTT11=
PLAYORDER=
